# xmcd
#
# Track frame offsets: 
#        150
#        12048
#        27246
#        42369
#        54867
#        74415
#        90288
#
# Disc length: 1415 seconds
#
# Revision: 0
# Processed by: cddbd v1.5.2PL0 Copyright (c) Steve Scherf et al.
# Submitted via: ExactAudioCopy v1.3
#
DISCID=49058507
DTITLE=Stone Gas Band - Up All Night
DYEAR=2019
DGENRE=Blues
TTITLE0=Annie Mae
TTITLE1=Every Woman I Get
TTITLE2=Stormed Through the Door
TTITLE3=Up All Night
TTITLE4=Been so Long
TTITLE5=Chicago Woman
TTITLE6=Disappointed Again
EXTD=
EXTT0=
EXTT1=
EXTT2=
EXTT3=
EXTT4=
EXTT5=
EXTT6=
PLAYORDER=
